<svg width="143" height="40" viewBox="0 0 143 40" fill="none" xmlns="http://www.w3.org/2000/svg">
<path fill-rule="evenodd" clip-rule="evenodd" d="M23.6801 0.424303C24.1749 2.99655 24.8632 7.0165 25.3309 11.2925C25.8542 16.0772 26.0904 21.0913 25.5122 24.7528C24.7627 29.4997 24.0036 34.6772 23.8134 39.1791C23.813 39.1885 23.8126 39.1978 23.8122 39.2072C17.6944 33.138 12.9339 30.2746 9.33297 28.1087C2.69848 24.118 4.8367e-06 22.4949 0 7.55167C0 7.55167 8.11259 0.791174 23.6801 0.424303ZM25.7141 0.41333C26.2096 3.03003 26.8658 6.9306 27.3191 11.0751C27.8457 15.8905 28.1096 21.1263 27.4878 25.0648C26.7373 29.8179 25.9964 34.8905 25.8116 39.2635C25.8069 39.3748 25.8026 39.4856 25.7986 39.5958C32.1042 33.2592 36.9901 30.3203 40.667 28.1087C47.3015 24.118 50 22.4949 50 7.55167C50 7.55167 41.6769 0.615728 25.7141 0.41333ZM15 20.4088C17.7614 20.4088 20 18.1702 20 15.4088C20 12.6474 17.7614 10.4088 15 10.4088C12.2386 10.4088 9.99999 12.6474 9.99999 15.4088C9.99999 18.1702 12.2386 20.4088 15 20.4088ZM37 12.4088C34.7909 12.4088 33 14.1997 33 16.4088C33 16.9611 32.5523 17.4088 32 17.4088C31.4477 17.4088 31 16.9611 31 16.4088C31 13.0951 33.6863 10.4088 37 10.4088C40.3137 10.4088 43 13.0951 43 16.4088C43 16.9611 42.5523 17.4088 42 17.4088C41.4477 17.4088 41 16.9611 41 16.4088C41 14.1997 39.2091 12.4088 37 12.4088Z" fill="#FB6400"/>
<path d="M66.5938 8.25452H71.2656V23.2858C71.2656 25.0358 70.8906 26.5097 70.1406 27.7076C69.401 28.9056 68.375 29.8066 67.0625 30.4108C65.7604 31.0149 64.2604 31.317 62.5625 31.317C60.8646 31.317 59.3542 31.0149 58.0312 30.4108C56.7188 29.8066 55.6875 28.9056 54.9375 27.7076C54.1979 26.5097 53.8281 25.0358 53.8281 23.2858V8.25452H58.5156V23.2858C58.5156 24.3066 58.6771 25.1399 59 25.7858C59.3229 26.4316 59.7865 26.9056 60.3906 27.2076C61.0052 27.5097 61.7292 27.6608 62.5625 27.6608C63.4167 27.6608 64.1406 27.5097 64.7344 27.2076C65.3385 26.9056 65.7969 26.4316 66.1094 25.7858C66.4323 25.1399 66.5938 24.3066 66.5938 23.2858V8.25452ZM93.6406 8.25452V31.0045H88.9531L79.8125 15.7545V31.0045H75.125V8.25452H79.8125L88.9688 23.5201V8.25452H93.6406ZM102.703 8.25452V31.0045H98.0312V8.25452H102.703ZM116.797 8.25452V31.0045H112.125V8.25452H116.797ZM123.797 8.25452V11.9264H105.234V8.25452H123.797ZM141.734 27.3483V31.0045H129.625V27.3483H141.734ZM131.156 8.25452V31.0045H126.469V8.25452H131.156ZM140.156 17.5201V21.0826H129.625V17.5201H140.156ZM141.719 8.25452V11.9264H129.625V8.25452H141.719Z" fill="white"/>
</svg>
